#!OML:ASF E:\Mandelcareful walks\Project 1\Capture day 1\Session 1\Subject1.ASF
:FULLY-SPECIFIED
:DEGREES
820
root 5.50038 17.0022 -0.314961 -155.794 -82.8209 160.045
lowerback 0.230763 0.602055 -3.88753
upperback 3.35557 0.815254 0.256138
thorax 3.26803 0.272335 2.46202
lowerneck -18.0542 3.03735 -1.67316
upperneck 29.4032 5.04875 -2.15454
head 12.8361 1.51743 0.221299
rclavicle 3.47873e-016 -4.17448e-015
rhumerus -25.8527 -5.22978 -83.7086
rradius 28.813
rwrist -9.00451
rhand -8.13199 -31.3111
rfingers 7.12502
rthumb 17.7818 -60.5181
lclavicle 3.47873e-016 -4.17448e-015
lhumerus -25.0898 -2.15534 90.6186
lradius 24.8344
lwrist 7.89325
lhand -19.908 -11.8425
lfingers 7.12502
lthumb 6.4286 18.0399
rfemur 2.06222 -0.499963 9.44678
rtibia 1.03368e-014
rfoot -4.5692 -19.9331
rtoes -3.36806
lfemur -9.22584 4.6782 -18.7206
ltibia 25.5474
lfoot -19.285 15.795
ltoes 3.75836
821
root 5.50154 16.9985 -0.329908 -155.39 -82.76 159.649
lowerback 0.0871083 0.579789 -3.94351
upperback 3.46456 0.792971 0.259676
thorax 3.46349 0.252944 2.49899
lowerneck -18.2068 2.95935 -1.58568
upperneck 29.2183 5.02774 -2.50193
head 12.8085 1.47738 0.0725874
rclavicle 5.31749e-015 2.18663e-015
rhumerus -25.6639 -5.13249 -83.7426
rradius 28.819
rwrist -9.01927
rhand -8.13993 -31.6324
rfingers 7.12502
rthumb 17.7742 -60.8401
lclavicle 5.31749e-015 2.18663e-015
lhumerus -24.7797 -2.31015 90.6929
lradius 24.6946
lwrist 8.11759
lhand -19.801 -11.8292
lfingers 7.12502
lthumb 6.53191 18.05
rfemur 1.19937 -0.45809 9.44722
rtibia 1.67871
rfoot -5.29691 -19.9726
rtoes -3.45475
lfemur -9.19765 4.66724 -18.7418
ltibia 25.4409
lfoot -19.2061 15.8427
ltoes 3.48146
822
root 5.50879 16.9958 -0.34561 -155.239 -82.7004 159.556
lowerback -0.00073113 0.608437 -3.92072
upperback 3.49244 0.834858 0.26797
thorax 3.53922 0.272301 2.49722
lowerneck -18.2282 2.82777 -1.6379
upperneck 29.0476 4.93238 -2.74602
head 12.751 1.40298 -0.0268813
rclavicle 8.05078e-015 4.57205e-015
rhumerus -25.6559 -5.05904 -83.7007
rradius 28.9102
rwrist -9.22866
rhand -8.27023 -31.5514
rfingers 7.12502
rthumb 17.6488 -60.7704
lclavicle 8.05078e-015 4.57205e-015
lhumerus -24.4866 -2.31942 90.7625
lradius 24.5494
lwrist 8.14374
lhand -19.6247 -11.7867
lfingers 7.12502
lthumb 6.70215 18.0872
rfemur 0.701411 -0.407066 9.48456
rtibia 2.49833
rfoot -5.53662 -20.1433
rtoes -1.88424
lfemur -9.24923 4.63363 -18.7248
ltibia 25.3974
lfoot -19.2466 15.8935
ltoes 3.61878
823
root 5.52825 17.004 -0.367938 -157.651 -82.7648 162.13
lowerback 0.147447 0.654571 -3.64827
upperback 3.33334 0.882892 0.370176
thorax 3.28798 0.31173 2.4481
lowerneck -18.2445 2.73176 -1.63076
upperneck 29.1367 4.81268 -2.81561
head 12.7929 1.33676 -0.0743494
rclavicle -3.13086e-015 8.54774e-015
rhumerus -25.7363 -5.35166 -83.6353
rradius 28.741
rwrist -9.14847
rhand -8.28043 -31.2145
rfingers 7.12502
rthumb 17.639 -60.4344
lclavicle -3.13086e-015 8.54774e-015
lhumerus -24.5123 -2.27657 90.7581
lradius 24.6668
lwrist 8.1341
lhand -19.4174 -11.4172
lfingers 7.12502
lthumb 6.90227 18.4502
rfemur 0.13436 -0.343304 9.99574
rtibia 3.07289
rfoot -5.77157 -20.0917
rtoes -1.11085
lfemur -9.50926 4.61814 -18.2579
ltibia 25.3994
lfoot -19.1466 15.9647
ltoes 3.95234
824
root 5.50928 17.0081 -0.384177 -156.197 -82.8218 160.549
lowerback 0.0846078 0.593937 -3.76258
upperback 3.36145 0.807742 0.328667
thorax 3.35742 0.269581 2.46849
lowerneck -18.4999 2.67334 -1.49487
upperneck 29.4388 4.75905 -3.01277
head 12.9815 1.28486 -0.18016
rclavicle 8.54774e-015 1.17283e-014
rhumerus -25.7026 -5.49919 -83.6342
rradius 28.5353
rwrist -8.96288
rhand -8.18109 -31.4435
rfingers 7.12502
rthumb 17.7346 -60.6548
lclavicle 8.54774e-015 1.17283e-014
lhumerus -24.6523 -2.16462 90.7395
lradius 24.9806
lwrist 8.08785
lhand -19.4837 -11.2497
lfingers 7.12502
lthumb 6.83821 18.6199
rfemur 0.143143 -0.437303 9.85272
rtibia 3.4729
rfoot -6.07641 -19.9685
rtoes -1.83596
lfemur -9.30128 4.51568 -18.3691
ltibia 25.3749
lfoot -19.1635 15.9437
ltoes 3.77599
